<?xml version="1.0" standalone="no"?>
<!DOCTYPE svg PUBLIC "-//W3C//DTD SVG 20010904//EN"
 "http://www.w3.org/TR/2001/REC-SVG-20010904/DTD/svg10.dtd">
<svg version="1.0" xmlns="http://www.w3.org/2000/svg"
 width="1310.000000pt" height="1310.000000pt" viewBox="0 0 1310.000000 1310.000000"
 preserveAspectRatio="xMidYMid meet">
<metadata>
Created by potrace 1.14, written by Peter Selinger 2001-2017
</metadata>
<g transform="translate(0.000000,1310.000000) scale(0.100000,-0.100000)"
fill="#000000" stroke="none">
<path d="M8965 10306 c-29 -21 -27 -44 16 -160 122 -330 179 -727 117 -826
-15 -24 -54 -41 -293 -125 -340 -120 -431 -183 -312 -214 56 -14 95 -19 282
-36 132 -12 150 -14 200 -26 106 -24 174 -84 231 -203 102 -212 122 -408 68
-677 -31 -156 -5 -207 69 -133 93 94 194 368 242 659 16 99 19 124 30 220 12
103 90 220 197 293 78 53 222 123 308 148 41 12 100 56 116 86 19 37 6 63 -44
84 -39 18 -192 22 -391 11 -73 -4 -105 -1 -139 12 -82 30 -154 123 -221 286
-93 225 -254 469 -376 569 -50 42 -76 50 -100 32z"/>
<path d="M9760 8753 c-18 -7 -30 -24 -24 -34 7 -12 82 -23 224 -34 197 -15
235 -23 355 -80 141 -66 165 -108 108 -188 -39 -54 -47 -81 -32 -109 19 -38
81 -79 142 -94 9 -2 27 -7 40 -10 21 -5 103 -5 297 -1 160 3 307 -29 369 -81
35 -29 35 -30 27 -143 -8 -121 20 -207 94 -292 77 -87 198 -139 295 -126 69 9
104 34 140 101 86 159 -6 342 -285 568 -130 105 -169 130 -290 188 -269 129
-762 268 -1123 317 -27 4 -59 9 -70 11 -39 8 -251 14 -267 7z"/>
<path d="M8590 8719 c-85 -7 -210 -22 -298 -34 -24 -4 -53 -8 -65 -11 -12 -2
-39 -6 -62 -9 -35 -5 -242 -43 -270 -49 -5 -2 -28 -6 -50 -10 -22 -5 -94 -21
-160 -38 -515 -126 -773 -253 -1015 -497 -187 -188 -242 -368 -153 -503 74
-111 331 -91 492 40 104 84 143 205 115 352 -12 59 -11 67 5 90 18 25 92 73
100 65 2 -2 11 0 20 5 9 4 35 11 56 14 22 4 63 10 90 14 60 10 227 8 310 -3
147 -20 287 -7 382 35 100 44 112 106 36 189 -40 43 -51 95 -26 123 27 30 92
65 180 98 101 36 169 48 313 55 321 15 355 20 344 49 -3 9 -16 18 -27 22 -29
10 -221 11 -317 3z"/>
<path d="M8720 7811 c-79 -25 -148 -62 -226 -122 -38 -29 -71 -55 -74 -59 -3
-3 -66 -54 -140 -114 -144 -115 -327 -242 -425 -296 -33 -18 -78 -43 -100 -55
-73 -40 -235 -105 -333 -134 -200 -59 -321 -76 -627 -86 -71 -2 -143 -7 -160
-10 -249 -48 -398 -248 -383 -514 4 -65 12 -103 30 -143 62 -134 180 -154 438
-72 63 20 120 39 125 42 6 4 15 7 20 8 6 1 35 11 65 22 213 79 351 82 410 10
20 -24 43 -87 56 -153 4 -22 8 -42 9 -45 16 -57 22 -311 10 -414 -16 -145 -39
-276 -71 -408 -2 -10 -6 -28 -9 -40 -45 -205 -194 -626 -345 -973 -105 -240
-120 -277 -135 -328 -22 -78 -27 -115 -27 -194 1 -122 40 -220 121 -301 58
-58 115 -93 196 -120 236 -79 524 -31 765 127 97 63 166 138 222 241 25 45 63
153 72 200 2 14 7 36 10 50 16 72 24 341 12 410 -3 14 -7 52 -10 85 -3 33 -8
71 -11 85 -2 13 -7 42 -11 65 -3 22 -14 85 -25 140 -11 55 -22 111 -25 125
-10 53 -74 327 -84 360 -5 19 -26 103 -46 185 -19 83 -42 177 -50 210 -12 52
-23 107 -39 190 -5 29 -24 135 -29 170 -16 104 -21 265 -10 350 21 172 111
296 244 338 74 24 95 27 227 33 138 5 276 30 363 64 223 87 378 254 438 474
25 91 21 272 -7 350 -43 120 -108 198 -200 239 -61 27 -159 31 -231 8z"/>
<path d="M6284 7551 c-117 -53 -347 -232 -504 -391 -224 -228 -333 -427 -324
-593 3 -70 46 -166 95 -215 122 -123 313 -111 442 27 81 86 124 223 113 361
-7 88 -9 101 -19 118 -17 25 -37 10 -66 -50 -35 -71 -54 -97 -94 -122 -35 -24
-89 -14 -116 19 -32 42 -11 108 82 245 28 41 53 77 56 80 3 3 19 23 35 45 17
22 91 113 165 203 132 158 211 264 211 283 0 14 -32 10 -76 -10z"/>
<path d="M11886 7561 c-8 -13 62 -108 198 -271 239 -286 348 -448 359 -533 4
-32 1 -40 -26 -63 -62 -52 -132 -13 -193 109 -37 72 -58 84 -75 40 -16 -42
-18 -191 -3 -260 69 -333 463 -431 602 -150 99 198 7 428 -293 732 -224 228
-538 446 -569 396z"/>
<path d="M3950 7520 c-250 -51 -465 -211 -647 -482 -69 -103 -156 -273 -197
-388 -15 -41 -31 -84 -36 -95 -11 -24 -58 -190 -64 -225 -2 -14 -12 -59 -21
-100 -9 -41 -18 -93 -21 -115 -53 -403 -150 -745 -221 -778 -22 -10 -27 -8
-43 13 -32 43 -40 99 -55 395 -7 127 -10 158 -26 240 -77 401 -294 624 -668
690 -47 8 -113 15 -146 15 -242 -1 -542 -181 -756 -455 -55 -70 -139 -198
-139 -211 0 -4 -6 -15 -13 -23 -21 -25 -120 -258 -132 -311 -1 -3 -9 -30 -18
-60 -21 -70 -53 -235 -63 -325 -14 -129 -8 -471 10 -560 2 -11 7 -40 10 -65 3
-25 8 -54 10 -65 3 -11 12 -53 20 -93 80 -371 269 -814 489 -1142 96 -143 260
-323 367 -401 119 -88 268 -157 395 -183 68 -14 267 -15 326 -2 138 31 312
113 382 181 106 102 140 276 86 444 -55 172 -275 444 -554 686 -44 39 -82 72
-85 76 -3 3 -63 53 -135 112 -204 169 -226 188 -298 263 -173 180 -251 334
-249 487 3 168 139 313 289 306 120 -5 230 -59 337 -163 108 -107 183 -221
341 -521 76 -142 76 -142 109 -195 101 -158 191 -207 271 -146 18 14 54 57 79
95 72 107 125 228 311 701 79 201 179 400 266 531 132 197 288 246 486 153
157 -75 205 -217 147 -436 -70 -265 -309 -617 -563 -828 -63 -53 -55 -46 -155
-134 -378 -335 -475 -612 -314 -894 48 -85 132 -177 205 -225 106 -69 153 -82
298 -82 76 1 117 6 170 24 228 74 438 258 588 513 275 471 518 1053 656 1578
35 130 89 381 96 443 3 23 7 53 10 67 11 56 18 117 31 265 14 160 5 406 -20
550 -77 431 -280 686 -658 829 -159 59 -338 76 -488 46z"/>
<path d="M1551 7326 c-38 -12 -68 -47 -75 -87 -3 -22 -1 -26 17 -24 12 1 28 3
35 4 7 0 11 5 8 9 -10 16 23 50 49 50 47 0 58 -65 17 -106 -73 -76 -102 -114
-102 -136 0 -18 5 -23 18 -21 9 2 42 6 72 10 30 4 64 8 75 10 11 2 29 4 41 4
17 1 20 6 16 30 -4 31 2 30 -92 17 -16 -2 -30 -1 -30 2 0 3 16 22 35 42 18 19
40 51 48 70 34 85 -40 157 -132 126z"/>
<path d="M1823 7312 c-64 -59 -69 -181 -11 -241 17 -17 35 -32 42 -32 62 -6
78 -4 105 15 85 60 82 229 -4 270 -51 25 -98 20 -132 -12z m115 -45 c25 -25
23 -128 -2 -156 -42 -46 -98 -9 -101 67 -4 87 54 137 103 89z"/>
<path d="M2133 7285 c-40 -40 -41 -51 -7 -59 20 -5 30 -2 41 14 18 25 55 26
77 1 28 -31 4 -63 -89 -115 -49 -28 -85 -55 -88 -66 -6 -24 0 -28 49 -35 22
-3 67 -11 101 -18 53 -11 63 -11 68 1 12 32 4 41 -57 54 l-62 13 45 23 c102
53 127 101 90 171 -15 27 -42 41 -93 46 -36 3 -45 0 -75 -30z"/>
<path d="M10725 7299 c-89 -14 -129 -51 -162 -149 -26 -78 -25 -328 2 -495 3
-16 7 -43 10 -60 2 -16 7 -48 10 -70 3 -22 10 -65 15 -95 5 -30 12 -72 16 -94
3 -21 7 -48 10 -59 2 -12 6 -37 9 -57 3 -20 7 -45 9 -55 4 -24 23 -162 35
-260 16 -125 7 -312 -17 -379 -36 -99 -72 -126 -210 -156 -245 -54 -391 22
-420 220 -13 88 -6 336 12 426 2 12 7 45 11 75 4 30 13 97 21 149 23 154 29
228 28 360 0 140 -10 186 -54 252 -54 81 -163 109 -275 70 -260 -90 -627 -564
-885 -1142 -23 -52 -48 -108 -55 -125 -44 -99 -130 -368 -150 -470 -27 -137
-44 -242 -50 -305 -4 -41 -9 -88 -11 -105 -7 -50 -6 -357 0 -410 3 -27 8 -72
11 -100 6 -52 12 -93 20 -135 3 -14 7 -34 9 -45 8 -40 28 -112 52 -185 29 -85
113 -260 126 -260 4 0 8 -6 8 -14 0 -16 141 -163 185 -192 44 -29 141 -69 230
-94 108 -30 119 -32 215 -32 267 -1 398 192 455 672 3 30 10 84 15 120 5 36
12 88 15 115 13 110 48 263 75 335 69 176 177 251 343 237 187 -16 276 -72
290 -181 8 -67 -22 -166 -106 -346 -60 -130 -116 -277 -133 -351 -3 -13 -8
-58 -11 -100 -14 -198 93 -354 311 -453 316 -144 710 190 962 817 69 172 142
444 159 593 4 32 9 61 10 64 16 27 24 359 12 503 -38 483 -237 1044 -520 1467
-224 336 -466 526 -632 499z"/>
<path d="M1105 7208 c-30 -17 -31 -22 -30 -108 l1 -80 -25 22 c-14 13 -43 38
-63 57 -35 32 -38 33 -70 21 -18 -7 -36 -16 -40 -19 -4 -3 18 -60 48 -126 31
-66 58 -128 61 -138 3 -10 11 -15 17 -12 6 3 19 8 29 11 9 4 17 10 17 13 0 8
-53 123 -71 154 -18 33 -5 27 46 -18 36 -32 56 -43 70 -39 33 10 37 20 36 88
0 36 1 66 3 66 4 0 28 -50 67 -137 14 -33 24 -38 53 -27 21 8 20 16 -5 72
-101 223 -102 224 -144 200z"/>
<path d="M2447 7159 c-130 -92 -136 -114 -38 -144 61 -18 62 -19 55 -48 -10
-48 48 -69 60 -22 5 21 11 24 30 19 19 -4 26 -1 31 15 7 24 -1 41 -20 41 -10
0 -6 21 16 87 16 47 26 90 21 95 -4 4 -21 10 -37 14 -26 5 -44 -4 -118 -57z
m73 -36 c-4 -16 -13 -40 -20 -55 -11 -24 -15 -25 -41 -16 -16 5 -31 13 -34 18
-3 6 90 80 101 80 2 0 -1 -12 -6 -27z"/>
<path d="M693 6981 l-82 -58 41 -59 c147 -213 121 -198 217 -128 45 31 81 60
81 63 0 3 -7 14 -14 23 -12 17 -15 16 -47 -7 -19 -13 -46 -31 -61 -40 -26 -14
-28 -14 -47 14 l-20 28 49 34 c52 35 59 49 37 67 -10 9 -26 3 -65 -23 l-51
-35 -15 22 c-9 12 -16 26 -16 30 0 4 25 24 55 44 30 20 55 39 55 41 0 10 -21
43 -28 43 -4 -1 -44 -27 -89 -59z"/>
<path d="M463 6798 c-40 -28 -66 -88 -54 -121 23 -61 83 -74 149 -34 51 32 68
37 81 24 31 -31 -4 -81 -57 -80 -43 1 -86 -32 -61 -48 46 -29 123 -6 164 49
30 41 26 98 -8 128 -37 31 -57 30 -128 -7 -61 -33 -89 -33 -89 -1 0 26 34 55
66 55 15 0 36 8 47 17 19 18 19 18 -1 29 -33 17 -75 13 -109 -11z"/>
<path d="M270 6574 c-27 -18 -100 -107 -100 -123 0 -6 17 -23 38 -38 20 -15
42 -32 48 -38 6 -5 26 -21 44 -35 19 -14 46 -35 61 -47 33 -28 41 -28 64 -3
18 20 18 21 -4 36 -57 40 -71 58 -58 75 10 14 22 14 79 6 65 -10 68 -9 87 14
l19 24 -26 7 c-32 9 -70 16 -94 17 -13 1 -18 10 -18 34 -1 71 -78 110 -140 71z
m73 -59 c17 -17 14 -40 -12 -74 -18 -24 -18 -24 -50 -5 -37 22 -38 27 -10 65
22 32 49 37 72 14z"/>
<path d="M98 6309 c-75 -38 -108 -154 -62 -216 49 -65 138 -94 196 -64 76 39
113 132 80 202 -38 79 -140 116 -214 78z m144 -90 c33 -40 31 -82 -8 -116 -33
-30 -71 -29 -116 2 -44 30 -56 70 -34 113 19 38 30 42 86 38 36 -3 50 -11 72
-37z"/>
<path d="M5717 6156 c-77 -34 -193 -187 -290 -381 -113 -228 -221 -569 -252
-800 -4 -27 -8 -61 -11 -75 -26 -175 -24 -532 5 -745 49 -356 162 -633 319
-779 96 -88 192 -126 322 -127 306 -1 466 231 427 621 -22 217 -121 524 -271
840 -78 166 -161 392 -180 490 -3 14 -10 50 -16 80 -49 240 -43 517 14 760 20
83 20 116 0 124 -21 8 -34 7 -67 -8z"/>
<path d="M12452 6161 c-15 -9 -14 -23 18 -186 11 -55 24 -136 29 -180 8 -82 7
-306 -2 -360 -3 -16 -8 -52 -12 -80 -14 -120 -87 -374 -141 -491 -13 -29 -24
-55 -24 -57 0 -3 -24 -56 -54 -118 -130 -278 -234 -588 -252 -754 -3 -27 -7
-61 -10 -75 -5 -30 -6 -187 0 -215 2 -11 7 -38 11 -60 24 -135 123 -257 250
-307 64 -25 192 -38 250 -25 169 39 288 137 388 322 91 168 162 443 185 715
13 165 6 525 -13 630 -2 14 -9 57 -15 95 -38 243 -143 561 -265 800 -122 237
-274 391 -343 346z"/>
</g>
</svg>
