<svg xmlns="http://www.w3.org/2000/svg" width="1413" height="926" fill="none" viewBox="0 0 1413 926">
  <g class="Group 12">
    <g class="Roads">
      <path stroke="#2631D4" stroke-linecap="round" stroke-linejoin="round" stroke-width="10" d="m94.02 434.46 170.87-206.84 4.62-19.14c-9.13-27.29-18.261-54.58-27.391-81.86 28.67-40.31 57.341-80.63 86.011-120.94M99.11 533.45c33.419 14.02 66.849 28.05 100.269 42.07" class="Vector"/>
      <path stroke="#2631D4" stroke-linecap="round" stroke-linejoin="round" stroke-width="10" d="M168.92 343.68c62.43 27.5 124.85 55 187.28 82.51 32.78-33.89 65.56-67.79 98.34-101.68m-344.11-175.8L362.81 260.5l103.95 12.96m1.149-1.55 56.34-67.98c-12.12-23.6-24.24-47.2-36.37-70.8.57-8.32 1.15-16.64 1.72-24.96M810.88 423.68c10.41-3.82 25.62-9.65 43.71-17.5 27.75-12.04 41.63-18.06 46.15-22.5 15.65-15.37 14.53-36.29 13.18-121.24-.43-27.12-.69-48.39-.81-58.51H524.25M134.38 918.69c12.39.46 28.22.98 46.64 1.41 32.9.76 38.83.41 45.36-2.64 13.21-6.17 19.42-22.68 31.27-55.49 26.71-73.97 37.49-104.18 61.95-112.28a40.5 40.5 0 0 1 8.15-1.79s.94-.11 1.92-.17c5.25-.36 64.71-.43 82.57-.44h135.15" class="Vector"/>
      <path stroke="#2631D4" stroke-linecap="round" stroke-linejoin="round" stroke-width="10" d="M308.27 755.89c-.85 6.49-1.5 15.62-.37 26.4 1.53 14.63 4.31 41.76 25.69 59.29 17.52 14.37 39.49 15.7 44.38 16 4 .24 7.34.14 9.68 0" class="Vector"/>
      <path stroke="#F69839" stroke-linecap="round" stroke-linejoin="round" stroke-width="10" d="M1037.76 458.82c.96 4.09 2.65 10.89 5.19 19.16 6.23 20.23 12.29 31.99 22.54 56.11 3.07 7.23 7.72 18.4 13.15 32.4" class="Vector"/>
      <path stroke="#2631D4" stroke-linecap="round" stroke-linejoin="round" stroke-width="10" d="M1037.86 457.86c.6-1.7 1.64-4.26 3.4-7.08 3.69-5.93 8.21-9.32 10.21-10.77 10.77-7.84 26.9-16.7 31.12-19.41 8.9-5.72 20.07-16.54 28.14-39.04 10.13-24.33 13.68-44.63 15-58.95 1.39-15.14 1.19-33.62.92-58.85-.08-7.3-.21-13.37-.31-17.56-10.31.04-155.811.64-175.181-.84-2.1-.16-4.51-.48-6.71-2.15-8.27-6.24-.57-21.59-7.3-31.21-2.88-4.11-9.13-8.24-24.04-8.04m186.481 382.49-39.31 81.21c-8.03-2.83-19.38-6.28-33.28-8.75-32.88-5.83-58.621-2.32-66.551-1.08-14.66 2.29-33.489 5.41-54.449 17.59A131.818 131.818 0 0 0 882.349 693l-2.16 164.55" class="Vector"/>
      <path stroke="#2631D4" stroke-linecap="round" stroke-linejoin="round" stroke-width="10" d="M1298.83 602.84c-43.46.66-74.16.99-82.75.47-1.77-.11-6.59-.5-12.03 1.63-2.54.99-4.32 2.18-8.36 5.1-9.49 6.85-12.03 8.97-12.03 8.97-23.38 19.51-42.79 37.19-56.91 44.87-12.44 6.77-32.83 12.35-66.47 3.77m108.79 189.7h237.92c.09-59.25.18-118.5.28-177.75-73.83-.03-147.67-.07-221.5-.1 9.68 58.61 19.35 117.23 29.03 175.84m-31.56-158.61c-100.3-.13-200.6-.26-300.9-.38-6.49.84-53.43 7.58-65.38 39.49a43.121 43.121 0 0 0-2.55 11.25c2.51 24.72 5.03 49.44 7.54 74.17-.68 9.33-3.31 25.95-14.55 42.15-24.58 35.43-68.39 37.13-73.87 37.26-112.61-.45-225.23-.9-337.84-1.36-7.53-1.07-18.47-3.44-30.52-9.16-8.08-3.83-29.44-14.3-43.02-37.62-8.56-14.69-10.62-28.65-12.99-44.62-1.6-10.78-1.94-19.95-1.93-26.59" class="Vector"/>
      <path stroke="#2631D4" stroke-linecap="round" stroke-linejoin="round" stroke-width="6" d="M525.029 655.62c3.18 9.34 6.35 18.67 9.53 28.01 93.56 45.46 187.11 90.92 280.67 136.38 21.74 5.91 43.47 11.83 65.21 17.74 96.98-1.78 193.961-3.57 290.941-5.35" class="Vector"/>
      <path stroke="#2631D4" stroke-linecap="round" stroke-linejoin="round" stroke-width="6" d="M251 728.33c7.42-2.99 18.5-7.44 31.96-12.84 48.13-19.29 42.54-16.86 56.41-22.52 28.92-11.8 63.05-26.38 89.85-33.3 3.76-.97 6.88-1.66 9.61-2.21 16.18-3.23 28.48-3.24 39.62-3.28 16.1-.06 32.2-.38 48.3-.33 9.57.03 24.44.06 43.01.04l-.09-104.88c-79.01-.03-158.03-.07-237.04-.1-25.31-10.64-50.62-21.28-75.94-31.92" class="Vector"/>
      <path stroke="#F69839" stroke-linecap="round" stroke-linejoin="round" stroke-width="10" d="M386.61 857.39h786c4.22-59.81 8.45-119.61 12.67-179.42-1.69-11.59-7.17-37.53-28.16-60.71-10.84-11.96-22.37-19.39-30.94-23.9-41.77-22.31-83.53-44.63-125.3-66.94C849.95 445.81 699 365.23 548.04 284.69l-81.27-11.23-256.85 294.01c-4.51 4.98-10.46 13.07-12.75 24.1-3.37 16.24 3.09 29.67 9.12 42.57 7.67 16.38 18.02 39.12 31.58 70.64 15.2 33.34 30.41 66.68 45.61 100.02-.07 35.86-.13 71.71-.2 107.57" class="Vector"/>
      <path stroke="#2631D4" stroke-linecap="round" stroke-linejoin="round" stroke-width="6" d="M341.739 549.44c-3.82 11.05-7.64 22.09-11.46 33.14v53.81l33.59-16.23c7.76-9.39 15.51-18.79 23.27-28.18l-55.71.14m57.05-197.23c27.51 13.31 55.011 26.62 82.521 39.93-10.69 29.07-21.38 58.13-32.07 87.2.23 8.41.45 16.82.68 25.22m130.149 106.65c.09 1.23.43 3.09 1.76 4.57 1.83 2.04 4.58 2.33 9.72 2.51 6.41.22 11.24.08 11.52.08 2.99-.09 7.76-.08 17.29-.08 7.37 0 11.06 0 12.51.08 4.91.23 9.83.11 14.74.18 2.09.03 4.04.06 6.16-1.05 2.75-1.43 4.19-3.92 4.89-5.47l1.98-71.01c-13.84-11.44-27.69-22.87-41.53-34.31-13.38-.14-26.76-.28-40.14-.41M815.51 739.35c-24.09-.34-48.181-.68-72.281-1.01 2.03 15.76 4.051 31.52 6.081 47.28M640.989 661.44c11.34 21.59 22.67 43.18 34.01 64.77 22.22-.46 44.45-.93 66.67-1.39l1.56 13.52" class="Vector"/>
      <path stroke="#2631D4" stroke-linecap="round" stroke-linejoin="round" stroke-width="6" d="M608.81 549.4c19.78-.19 39.55-.39 59.33-.58l72.12-109.17m-91.471 205.16c18.67-3.41 32.13-10.31 40.11-15.23 10.08-6.2 20.5-12.62 27.28-25.7 5.34-10.3 6.08-20.21 6.01-26.12-5.88.7-14.73.89-24.66-2.26-5.78-1.84-15.03-4.77-22.12-13.62-3.84-4.79-5.71-9.65-6.66-12.9m53.45 28.79a109.9 109.9 0 0 0-12.77-32.71 109.815 109.815 0 0 0-21.31-26.01" class="Vector"/>
      <path stroke="#2631D4" stroke-linecap="round" stroke-linejoin="round" stroke-width="6" d="M703.84 620.8c2.68 3.72 10.35 13.37 21.52 14.5 2.39.24 7.93.8 10.6-2.52 1.83-2.28 1.48-5.36 1.26-7.03-1.45-11.17-14.72-20.42-18.26-22.77m2.439-11c9.07 7.31 22.64 16.49 40.77 23.17 29.24 10.79 55.1 9.49 69.09 7.72m-112.32-58.94c26.94.09 53.891.18 80.831.26m-32.501-58.45-39.59 20.5-21.85 11.32" class="Vector"/>
      <path stroke="#2631D4" stroke-linecap="round" stroke-linejoin="round" stroke-width="6" d="M692.239 520.08c1.82-1.08 9.42-5.34 19.37-3.42 9.33 1.8 14.66 7.86 16.08 9.59" class="Vector"/>
      <path stroke="#F69839" stroke-linecap="round" stroke-linejoin="round" stroke-width="6" d="M740.26 439.65c8-12.14 16-24.29 24-36.43" class="Vector"/>
      <path stroke="#F268E7" stroke-dasharray=".01 18" stroke-linecap="round" stroke-linejoin="round" stroke-width="9" d="M1050.01 462.38c7.32 17.73 12.79 32.28 16.38 42.16 10.48 28.79 13.62 41.41 26.47 52.12 6.56 5.47 8.92 4.83 20.93 11.06 8.75 4.55 35.79 18.94 56.88 47.13 6.67 8.91 20.33 27.61 24.82 54.86 1.7 10.31 1.42 17.82.26 34.74-2.93 42.83-6.4 71.62-8.62 96.4-1.31 14.61-2.87 36.33-3.33 63.18" class="Vector"/>
    </g>
    <g class="Schmitt Hall" clip-path="url(#a)">
      <g class="Group">
        <path fill="#2D2D2D" d="M662.34 491.804h-67.943v39.278h67.943v-39.278Z" class="Vector"/>
        <path fill="#2D2D2D" d="M603.622 485.822h-27.335v45.148h27.335v-45.148Z" class="Vector"/>
        <path fill="#000" d="M622.519 491.691h-4.724v39.278h4.724v-39.278Zm-20.364-.013h-4.724v39.279h4.724v-39.279Zm40.611.013h-4.724v39.278h4.724v-39.278Zm-30.261-.013h-4.725v39.291h4.725v-39.291Zm20.025.072h-4.724v39.291h4.724V491.75Z" class="Vector"/>
        <path fill="#000" d="M666 531.019h-95V534h95v-2.981Zm-3.21-39.328h-4.725v39.278h4.725v-39.278Z" class="Vector"/>
        <path fill="#000" d="M652.778 491.75h-4.724v39.291h4.724V491.75Z" class="Vector"/>
        <path fill="#000" d="M665.942 490.901h-72.726v3.16h72.726v-3.16Zm.035 11.287h-72.726v6.208h72.726v-6.208Zm-.148 12.754h-72.726v6.208h72.726v-6.208Z" class="Vector"/>
        <path fill="#FFFAE9" d="M607.446 496.883h-5.287v5.305h5.287v-5.305Zm10.349 0h-5.287v5.305h5.287v-5.305Zm10.011 0h-5.286v5.305h5.286v-5.305Zm10.237 0h-5.287v5.305h5.287v-5.305Zm10.011 0h-5.287v5.305h5.287v-5.305Zm10.011 0h-5.287v5.305h5.287v-5.305Zm-50.619 12.754h-5.287v5.305h5.287v-5.305Zm10.349 0h-5.287v5.305h5.287v-5.305Zm10.011 0h-5.286v5.305h5.286v-5.305Zm10.237 0h-5.287v5.305h5.287v-5.305Zm10.011 0h-5.287v5.305h5.287v-5.305Zm10.011 0h-5.287v5.305h5.287v-5.305Zm-50.619 13.77h-5.287v5.305h5.287v-5.305Zm10.349 0h-5.287v5.305h5.287v-5.305Zm10.011 0h-5.286v5.305h5.286v-5.305Zm10.237 0h-5.287v5.305h5.287v-5.305Zm10.011 0h-5.287v5.305h5.287v-5.305Zm10.011 0h-5.287v5.305h5.287v-5.305Z" class="Vector"/>
        <path fill="#000" d="M605.534 483h-31.047v2.822h31.047V483Z" class="Vector"/>
      </g>
    </g>
    <g class="Matteo Ricci Hall" clip-path="url(#b)">
      <g class="Group">
        <path fill="#2D2D2D" d="M1023.63 516.143H901.526v48.895h122.104v-48.895Z" class="Vector"/>
        <path fill="#FFFAE9" d="M1021.11 527.385H904.895v5.5h116.215v-5.5Z" class="Vector"/>
        <g class="Group">
          <path fill="#000" d="M947 539.654h-5.053v25.384H947v-25.384Z" class="Vector"/>
        </g>
        <g class="Group">
          <path fill="#000" d="M925.947 539.654h-5.052v25.384h5.052v-25.384Z" class="Vector"/>
        </g>
        <g class="Group">
          <path fill="#000" d="M973.526 563.769h-21.473v1.27h21.473v-1.27Z" class="Vector"/>
        </g>
        <g class="Group">
          <path fill="#000" d="M971.421 561.654h-17.263v1.269h17.263v-1.269Z" class="Vector"/>
        </g>
        <g class="Group">
          <path fill="#000" d="M969.315 559.538h-13.052v1.27h13.052v-1.27Z" class="Vector"/>
        </g>
        <g class="Group">
          <path fill="#000" d="M1005.11 539.654h-5.06v25.384h5.06v-25.384Z" class="Vector"/>
        </g>
        <g class="Group">
          <path fill="#000" d="M983.632 539.654h-5.053v25.384h5.053v-25.384Z" class="Vector"/>
        </g>
        <path fill="#FFFAE9" d="M939 547.692h-10.105v10.154H939v-10.154Z" class="Vector"/>
        <g class="Group">
          <path fill="#000" d="M1035 564.615H891V568h144v-3.385Z" class="Vector"/>
        </g>
        <path fill="#FFFAE9" d="M972.684 547.269h-19.789v11.423h19.789v-11.423Z" class="Vector"/>
        <g class="Group">
          <path fill="#000" d="M930.158 547.269h-1.684v11.423h1.684v-11.423Z" class="Vector"/>
        </g>
        <g class="Group">
          <path fill="#000" d="M939.842 547.269h-1.684v11.423h1.684v-11.423Z" class="Vector"/>
        </g>
        <g class="Group">
          <path fill="#000" d="M939.842 547.269h-11.368v1.693h11.368v-1.693Z" class="Vector"/>
        </g>
        <g class="Group">
          <path fill="#000" d="M939.842 557h-11.368v1.692h11.368V557Z" class="Vector"/>
        </g>
        <g class="Group">
          <path fill="#000" d="M939.842 552.769h-11.368v.846h11.368v-.846Z" class="Vector"/>
        </g>
        <g class="Group">
          <path fill="#000" d="M934.368 547.269h-.842v11.423h.842v-11.423Z" class="Vector"/>
        </g>
        <path fill="#FFFAE9" d="M997.105 547.269H987v10.154h10.105v-10.154Z" class="Vector"/>
        <g class="Group">
          <path fill="#000" d="M988.263 546.846h-1.684v11.423h1.684v-11.423Z" class="Vector"/>
        </g>
        <g class="Group">
          <path fill="#000" d="M997.947 546.846h-1.684v11.423h1.684v-11.423Z" class="Vector"/>
        </g>
        <g class="Group">
          <path fill="#000" d="M997.948 546.846h-11.369v1.692h11.369v-1.692Z" class="Vector"/>
        </g>
        <g class="Group">
          <path fill="#000" d="M997.948 556.577h-11.369v1.692h11.369v-1.692Z" class="Vector"/>
        </g>
        <g class="Group">
          <path fill="#000" d="M997.948 552.346h-11.369v.846h11.369v-.846Z" class="Vector"/>
        </g>
        <g class="Group">
          <path fill="#000" d="M992.474 546.846h-.842v11.423h.842v-11.423Z" class="Vector"/>
        </g>
        <g class="Group">
          <path fill="#000" d="M925.947 539.654h-5.052v25.384h5.052v-25.384Z" class="Vector"/>
        </g>
        <g class="Group">
          <path fill="#000" d="M904.894 539.654h-5.052v25.384h5.052v-25.384Z" class="Vector"/>
        </g>
        <path fill="#FFFAE9" d="M917.947 547.692h-10.105v10.154h10.105v-10.154Z" class="Vector"/>
        <g class="Group">
          <path fill="#000" d="M909.105 547.269h-1.684v11.423h1.684v-11.423Z" class="Vector"/>
        </g>
        <g class="Group">
          <path fill="#000" d="M918.79 547.269h-1.685v11.423h1.685v-11.423Z" class="Vector"/>
        </g>
        <g class="Group">
          <path fill="#000" d="M918.789 547.269h-11.368v1.693h11.368v-1.693Z" class="Vector"/>
        </g>
        <g class="Group">
          <path fill="#000" d="M918.789 557h-11.368v1.692h11.368V557Z" class="Vector"/>
        </g>
        <g class="Group">
          <path fill="#000" d="M918.789 552.769h-11.368v.846h11.368v-.846Z" class="Vector"/>
        </g>
        <g class="Group">
          <path fill="#000" d="M913.316 547.269h-.842v11.423h.842v-11.423Z" class="Vector"/>
        </g>
        <g class="Group">
          <path fill="#000" d="M1026.16 539.654h-5.05v25.384h5.05v-25.384Z" class="Vector"/>
        </g>
        <g class="Group">
          <path fill="#000" d="M1005.11 539.654h-5.06v25.384h5.06v-25.384Z" class="Vector"/>
        </g>
        <path fill="#FFFAE9" d="M1018.16 547.692h-10.11v10.154h10.11v-10.154Z" class="Vector"/>
        <g class="Group">
          <path fill="#000" d="M1009.32 547.269h-1.69v11.423h1.69v-11.423Z" class="Vector"/>
        </g>
        <g class="Group">
          <path fill="#000" d="M1019 547.269h-1.68v11.423h1.68v-11.423Z" class="Vector"/>
        </g>
        <g class="Group">
          <path fill="#000" d="M1019 547.269h-11.37v1.693H1019v-1.693Z" class="Vector"/>
        </g>
        <g class="Group">
          <path fill="#000" d="M1019 557h-11.37v1.692H1019V557Z" class="Vector"/>
        </g>
        <g class="Group">
          <path fill="#000" d="M1019 552.769h-11.37v.846H1019v-.846Z" class="Vector"/>
        </g>
        <g class="Group">
          <path fill="#000" d="M1013.53 547.269h-.85v11.423h.85v-11.423Z" class="Vector"/>
        </g>
        <path fill="#000" d="M1026.16 532.885H899.842v6.769h126.318v-6.769Z" class="Vector"/>
        <path fill="#000" d="M983.631 525.269h-41.684v11h41.684v-11Z" class="Vector"/>
        <g class="Group">
          <path fill="#000" d="M947 517.54h-5.053v20.955H947V517.54Z" class="Vector"/>
        </g>
        <g class="Group">
          <path fill="#000" d="M925.947 517.54h-5.052v20.955h5.052V517.54Z" class="Vector"/>
        </g>
        <g class="Group">
          <path fill="#000" d="M1005.11 517.54h-5.06v20.955h5.06V517.54Z" class="Vector"/>
        </g>
        <g class="Group">
          <path fill="#000" d="M983.632 517.54h-5.053v20.955h5.053V517.54Z" class="Vector"/>
        </g>
        <g class="Group">
          <path fill="#000" d="M925.947 517.54h-5.052v20.955h5.052V517.54Z" class="Vector"/>
        </g>
        <g class="Group">
          <path fill="#000" d="M904.894 517.54h-5.052v20.955h5.052V517.54Z" class="Vector"/>
        </g>
        <g class="Group">
          <path fill="#000" d="M1026.16 517.54h-5.05v20.955h5.05V517.54Z" class="Vector"/>
        </g>
        <g class="Group">
          <path fill="#000" d="M1005.11 517.54h-5.06v20.955h5.06V517.54Z" class="Vector"/>
        </g>
        <path fill="#000" d="M1029.1 517.54H897.315l8-4.54h116.215l7.57 4.54Z" class="Vector"/>
        <g class="Group">
          <path fill="#000" d="M972.684 547.269h-19.789v3.385h19.789v-3.385Z" class="Vector"/>
        </g>
        <g class="Group">
          <path fill="#000" d="M972.684 557.846h-19.789v.846h19.789v-.846Z" class="Vector"/>
        </g>
        <g class="Group">
          <path fill="#000" d="M953.737 547.269h-.842v11.423h.842v-11.423Z" class="Vector"/>
        </g>
        <g class="Group">
          <path fill="#000" d="M972.684 547.269h-.842v11.423h.842v-11.423Z" class="Vector"/>
        </g>
        <g class="Group">
          <path fill="#000" d="M963 547.269h-.842v11.423H963v-11.423Z" class="Vector"/>
        </g>
      </g>
    </g>
    <g class="Bellarmine Hall">
      <path fill="#2D2D2D" d="M190.45 219.14H81.9v58.9h108.55v-58.9Z" class="Vector"/>
      <path fill="#000" d="M84.26 210.49H51.38v67.56h32.88v-67.56Z" class="Vector"/>
      <path fill="#2D2D2D" d="M80.24 210.49H55.39v67.56h24.85v-67.56Z" class="Vector"/>
      <path fill="#000" d="M208.12 210.49h-32.88v67.56h32.88v-67.56Z" class="Vector"/>
      <path fill="#2D2D2D" d="M204.11 210.49h-24.85v67.56h24.85v-67.56Z" class="Vector"/>
      <path fill="#FFF9EB" d="M80.24 233.36H55.4v9.26h24.84v-9.26Zm123.86 0h-24.84v9.26h24.84v-9.26ZM80.25 257.67H55.41v9.26h24.84v-9.26Zm123.859 0H179.27v9.26h24.839v-9.26Z" class="Vector"/>
      <g class="Group">
        <path fill="#FFF9EB" d="M96.72 226.7h-10.5v12.32h10.5V226.7Zm12.759 0h-10.5v12.32h10.5V226.7Zm12.761 0h-10.5v12.32h10.5V226.7Zm12.76 0h-10.5v12.32H135V226.7Zm12.76 0h-10.5v12.32h10.5V226.7Zm12.769 0h-10.5v12.32h10.5V226.7Zm12.761 0h-10.5v12.32h10.5V226.7Z" class="Vector"/>
      </g>
      <g class="Group">
        <path fill="#FFF9EB" d="M96.72 247.34h-10.5v12.32h10.5v-12.32Zm12.759 0h-10.5v12.32h10.5v-12.32Zm12.761 0h-10.5v12.32h10.5v-12.32Zm12.76 0h-10.5v12.32H135v-12.32Zm12.76 0h-10.5v12.32h10.5v-12.32Zm12.769 0h-10.5v12.32h10.5v-12.32Zm12.761 0h-10.5v12.32h10.5v-12.32Z" class="Vector"/>
      </g>
      <g class="Group">
        <path fill="#FFF9EB" d="M96.72 268.13h-10.5v9.99h10.5v-9.99Zm12.759 0h-10.5v9.99h10.5v-9.99Zm12.761 0h-10.5v9.99h10.5v-9.99Zm12.76 0h-10.5v9.99H135v-9.99Zm12.76 0h-10.5v9.99h10.5v-9.99Zm12.769 0h-10.5v9.99h10.5v-9.99Zm12.761 0h-10.5v9.99h10.5v-9.99Z" class="Vector"/>
      </g>
      <g class="Group">
        <path fill="#000" d="M96.72 233.81h-10.5v5.22h10.5v-5.22Zm12.759 0h-10.5v5.22h10.5v-5.22Zm12.761 0h-10.5v5.22h10.5v-5.22Zm12.76 0h-10.5v5.22H135v-5.22Zm12.76 0h-10.5v5.22h10.5v-5.22Zm12.769 0h-10.5v5.22h10.5v-5.22Zm12.761 0h-10.5v5.22h10.5v-5.22Z" class="Vector"/>
      </g>
      <g class="Group">
        <path fill="#000" d="M96.72 254.45h-10.5v5.22h10.5v-5.22Zm12.759 0h-10.5v5.22h10.5v-5.22Zm12.761 0h-10.5v5.22h10.5v-5.22Zm12.76 0h-10.5v5.22H135v-5.22Zm12.76 0h-10.5v5.22h10.5v-5.22Zm12.769 0h-10.5v5.22h10.5v-5.22Zm12.761 0h-10.5v5.22h10.5v-5.22Z" class="Vector"/>
      </g>
    </g>
    <g class="Arete">
      <path fill="#2D2D2D" d="m.27 768.47 7.21 47.98h96.91l8.15-61.47c-10.12-7.98-18.6-9.82-24.46-10.04-21.86-.8-29.44 20.22-50.81 17.88-10.21-1.12-16.46-6.8-26.03-3.14-5.31 2.03-8.84 5.87-10.98 8.78l.01.01Z" class="Vector"/>
      <path fill="#FFF9EB" d="M127.49 774.81h47.59l4.66 25.31h-56.1l3.85-25.31Z" class="Vector"/>
      <path fill="#2D2D2D" d="M127.489 774.81c-.52 3.39-1.03 6.78-1.55 10.17h51.01c-.62-3.39-1.24-6.78-1.87-10.17h-47.59Zm-4.349 25.32h56.6l-1.72-8.84h-53.68l-1.2 8.84Z" class="Vector"/>
      <path fill="#000" d="M104.37 816.45h16.96l7.5-49.59h-17.91l-6.55 49.59Zm78.1-.41-8.71-48.67h25.11v-9.57h31.59v7h22.04v51.59l-70.03-.35Z" class="Vector"/>
      <path fill="#2D2D2D" d="M230.48 757.72h-31.59v58.39h31.59v-58.39Z" class="Vector"/>
      <path fill="#FFF9EB" d="M219.99 790.15h-21.25v9.18h21.25v-9.18Zm0-12.17h-21.25v9.18h21.25v-9.18Zm0-11.76h-21.25v9.18h21.25v-9.18Z" class="Vector"/>
      <path fill="#2D2D2D" d="M235.32 764.8h-2.35v51.4h2.35v-51.4Zm4.87.01h-2.35v51.51h2.35v-51.51Zm4.86 0h-2.35v51.53h2.35v-51.53Zm4.86 0h-2.35v51.55h2.35v-51.55Z" class="Vector"/>
      <g class="Group">
        <path fill="#000" d="m.26 768.46 1.47 9.78v-11.62c-.54.63-1.04 1.26-1.47 1.84Zm3.47-3.94v27.04l2.36 15.68v-44.71c-.86.64-1.64 1.31-2.36 1.99Zm6.71 51.93v-56.42c-.83.36-1.62.75-2.36 1.19v55.23h2.36Zm4.36 0v-57.74c-.76.13-1.55.33-2.36.58v57.17h2.36v-.01Zm4.36 0v-57.91c-.77-.07-1.56-.08-2.36-.04v57.95h2.36Zm4.36 0v-57.12c-.78-.2-1.57-.39-2.36-.53v57.64h2.36v.01Zm4.36 0v-55.83c-.8-.25-1.58-.5-2.36-.73v56.56h2.36Zm4.36 0v-54.57c-.8-.2-1.59-.42-2.36-.65v55.22h2.36Zm4.35 0v-53.72c-.81-.11-1.59-.24-2.36-.39v54.11h2.36Zm4.36 0V763c-.77.01-1.55-.02-2.36-.07v53.53h2.36v-.01Zm4.36 0v-53.87c-.77.14-1.55.25-2.36.32v53.55h2.36Zm4.36 0v-55c-.77.26-1.56.49-2.36.7v54.3h2.36Zm4.36 0v-56.86c-.77.39-1.56.75-2.36 1.08v55.77h2.36v.01Zm4.36 0v-59.33c-.78.48-1.56.95-2.36 1.4v57.93h2.36Zm4.36 0v-62.17c-.79.52-1.57 1.04-2.36 1.56v60.61h2.36Zm4.35 0v-65.01c-.79.5-1.58 1-2.36 1.52v63.49h2.36Zm4.36 0v-67.53c-.8.42-1.58.85-2.36 1.3v66.23h2.36Zm4.36 0v-69.5c-.8.3-1.59.63-2.36.98v68.51h2.36v.01Zm4.36 0v-70.8c-.81.18-1.59.39-2.36.63v70.17h2.36Zm4.36 0v-71.43c-.8.06-1.59.14-2.36.26v71.18h2.36v-.01Zm4.36 0v-71.46c-.28-.02-.56-.03-.83-.04-.52-.02-1.03-.01-1.53 0v71.52h2.36v-.02Zm4.35 0v-70.9c-.82-.16-1.6-.28-2.36-.37v71.28h2.36v-.01Zm4.36 0v-69.77c-.81-.26-1.59-.49-2.36-.69v70.45h2.36v.01Zm4.359 0v-68.06c-.8-.37-1.59-.69-2.36-.99v69.05h2.36Zm2.411 0 1.95-14.7v-51.04c-.8-.47-1.59-.92-2.36-1.32v67.07h.41v-.01Zm6.31-47.56v-15.31c-.8-.58-1.58-1.12-2.36-1.63v34.7l2.36-17.77v.01Z" class="Vector"/>
      </g>
    </g>
    <g class="Frame" clip-path="url(#c)">
      <g class="Group">
        <path fill="#2D2D2D" d="M403.508 491.228h-86.459v35.351h86.459v-35.351Z" class="Vector"/>
        <path fill="#000" d="M326.656 505.11h-5.699v21.469h5.699V505.11Zm10.258 0h-5.699v21.469h5.699V505.11Z" class="Vector"/>
        <path fill="#000" d="M342.45 514.087h-27.354v4.163h27.354v-4.163Zm0-14.142h-27.354v5.165h27.354v-5.165Zm2.442-13.882h-29.796v5.165h29.796v-5.165Z" class="Vector"/>
        <path fill="#000" d="M319.817 489.776h-3.093v11.137h3.093v-11.137Zm21.656 0h-3.094v11.137h3.094v-11.137Zm-10.747 0h-3.093v11.137h3.093v-11.137Zm-5.373 0h-3.093v11.137h3.093v-11.137Zm10.747 0h-3.094v11.137h3.094v-11.137Zm52.613 15.271h-5.699v21.469h5.699v-21.469Zm10.257 0h-5.699v21.469h5.699v-21.469Z" class="Vector"/>
        <path fill="#000" d="M418 514.025h-40.848v4.163H418v-4.163Zm-.814-14.143h-40.034v5.165h40.034v-5.165ZM406.113 486h-30.285v5.165h30.285V486Z" class="Vector"/>
        <path fill="#000" d="M381.874 489.713h-3.094v11.137h3.094v-11.137Zm21.656 0h-3.093v11.137h3.093v-11.137Zm-10.747 0h-3.094v11.137h3.094v-11.137Zm-5.373 0h-3.094v11.137h3.094v-11.137Zm10.747 0h-3.094v11.137h3.094v-11.137Zm13.656 15.397h-5.699v21.469h5.699V505.11Z" class="Vector"/>
        <g class="Group">
          <path fill="#000" d="M372.411 525.333h-23.95v1.523h23.95v-1.523Z" class="Vector"/>
        </g>
        <g class="Group">
          <path fill="#000" d="M370.061 522.793h-19.252v1.524h19.252v-1.524Z" class="Vector"/>
        </g>
        <g class="Group">
          <path fill="#000" d="M367.714 520.254h-14.557v1.524h14.557v-1.524Z" class="Vector"/>
        </g>
        <g class="Group">
          <path fill="#000" d="M416.046 526.367H312V529h104.046v-2.633Z" class="Vector"/>
        </g>
        <path fill="#FFFAE9" d="M371.47 505.523h-22.071v13.716h22.071v-13.716Z" class="Vector"/>
        <g class="Group">
          <path fill="#000" d="M371.921 502.528h-22.522v3.025h22.522v-3.025Z" class="Vector"/>
        </g>
        <g class="Group">
          <path fill="#000" d="M371.47 518.222h-22.071v1.015h22.071v-1.015Z" class="Vector"/>
        </g>
        <g class="Group">
          <path fill="#000" d="M350.339 505.523h-.94v13.716h.94v-13.716Z" class="Vector"/>
        </g>
        <g class="Group">
          <path fill="#000" d="M360.67 505.523h-.94v13.716h.94v-13.716Z" class="Vector"/>
        </g>
        <g class="Group">
          <path fill="#000" d="M371.957 505.404h-.939v13.716h.939v-13.716Z" class="Vector"/>
        </g>
      </g>
    </g>
    <g class="Berchmans Hall">
      <path fill="#000" d="M608.301 345.2h-34.75v47.3h34.75v-47.3Z" class="Vector"/>
      <path fill="#2D2D2D" d="M581.82 334.65h-34.75v57.84h34.75v-57.84Z" class="Vector"/>
      <path fill="#FFF9EB" d="M574.7 342.08h-11.17v11.52h11.17v-11.52Zm0 15.52h-11.17v11.52h11.17V357.6Z" class="Vector"/>
      <path fill="#000" d="M608.301 374.87h-61.24v17.63h61.24v-17.63Z" class="Vector"/>
      <g class="Group">
        <path fill="#FFF9EB" d="M566.44 379.92H552.5v12.59h13.94v-12.59Zm18.21.15h-13.79v12.44h13.79v-12.44Zm18.21-.15h-13.64v12.59h13.64v-12.59Z" class="Vector"/>
      </g>
      <g class="Group">
        <path fill="#FFF9EB" d="M588.761 348h-3.21v24.24h3.21V348Zm5.219-.02h-3.209v24.3h3.209v-24.3Zm5.22-.01h-3.21v24.3h3.21v-24.3Zm5.221 0h-3.21v24.32h3.21v-24.32Z" class="Vector"/>
      </g>
    </g>
    <g class="Blue Eagle Gym">
      <path fill="#2D2D2D" d="M1373.17 781.57h-133.29v46.77h133.29v-46.77Z" class="Vector"/>
      <path fill="#000" d="M1239.88 793.98h133.29v-12.41c-2.97-3.67-26.65-31.91-66.85-31.81-39.96.09-63.45 28.11-66.45 31.81v12.41h.01Zm133.28 28.52h-133.27v5.84h133.27v-5.84Z" class="Vector"/>
      <g class="Group">
        <path fill="#FFF9EB" d="M1265.96 805.8h-21.09v16.7h21.09v-16.7Zm25.56 0h-21.09v16.7h21.09v-16.7Zm25.55 0h-21.09v16.7h21.09v-16.7Zm25.56 0h-21.09v16.7h21.09v-16.7Zm25.56 0h-21.09v16.7h21.09v-16.7Z" class="Vector"/>
      </g>
      <path fill="#FFF9EB" d="M1242.56 793.97h127.93v-11.48c-2.85-3.39-25.58-29.5-64.16-29.42-38.35.09-60.89 25.99-63.77 29.42v11.48Z" class="Vector"/>
      <g class="Group">
        <g class="Group">
          <path fill="#000" d="M1246.76 793.99h-2.67v-16.34h2.67v16.34Zm4.66-20.27h-2.67v20.27h2.67v-20.27Zm4.66-4.24h-2.67v24.51h2.67v-24.51Zm4.67-3.11h-2.67v27.62h2.67v-27.62Zm4.66-2.4h-2.67v30.02h2.67v-30.02Zm4.67-2.68h-2.67v32.7h2.67v-32.7Zm4.66-2.6h-2.67v35.3h2.67v-35.3Zm4.67-2.14h-2.67v37.44h2.67v-37.44Z" class="Vector"/>
        </g>
        <path fill="#000" d="M1366.32 794.01h2.67v-16.34h-2.67v16.34Zm-4.66-.01h2.67v-20.27h-2.67V794Zm-4.67.01h2.67V769.5h-2.67v24.51Zm-4.66 0h2.67v-27.62h-2.67v27.62Zm-4.67 0h2.67v-30.02h-2.67v30.02Zm-4.67 0h2.67v-32.7h-2.67v32.7Zm-4.67 0h2.67v-35.3h-2.67v35.3Zm-4.66 0h2.67v-37.44h-2.67v37.44Z" class="Vector"/>
      </g>
      <path fill="#2D2D2D" d="M1294.16 769.25c-.11.22.83 1.05 4.76 3.45.3-.07.58-.09.83-.09 2.2.07 3.59 2.54 3.8 2.92-.82.41-1.63.81-2.45 1.22-.01-.02-.03-.05-.04-.07-.41.18-1.25.62-1.77 1.54-.13.24-.22.47-.29.68a.52.52 0 0 0-.18.26c-.02.07-.02.13-.02.17-.09.08-.28.27-.37.58-.06.21-.05.38-.04.49.03.08.12.31.35.42.23.11.5.07.51 0 .01-.05-.15-.09-.24-.27-.03-.06-.04-.12-.05-.16l1.16-.86c.16-.16.38-.36.67-.55.11-.08.35-.23.63-.35.22-.09 1.07-.47 2.05-.24.59.14 1.02.44.99.59 0 .05-.07.09-.1.21-.02.09-.01.16 0 .19.02.34-1.44.73-1.59 1.45 0 .04-.01.08-.01.09-.6.69-.96.78-1.18.72-.24-.06-.26-.28-.58-.39-.37-.13-.88-.05-1.1.27a.61.61 0 0 0-.11.45c.04.26.26.39.29.41 0-.12-.01-.25-.02-.37.06 0 .16 0 .26-.04s.13-.1.2-.14c.19-.13.5-.09.54.01.04.09-.2.17-.34.46-.02.05-.17.37-.04.7.03.08.13.33.36.39.27.07.55-.16.64-.4.08-.21 0-.44-.03-.44-.04 0-.04.21-.15.26-.1.04-.25-.05-.26-.15-.01-.11.17-.23.31-.27.35-.1.67.2.69.22.12.11.3.35.23.51-.03.07-.1.09-.12.2-.03.11.03.17 0 .21-.08.09-.42-.16-.48-.09-.04.05.05.23.19.34.15.11.32.1.43.1.11 0 .25 0 .37-.09.27-.19.3-.78.08-1.18-.18-.32-.46-.38-.45-.6 0-.17.2-.3.36-.39.01.03.07.13.2.18.17.07.32-.02.33-.03 0 .04.03.15.12.23.14.13.33.11.35.1-.02.12.03.24.13.3.08.04.18.04.26-.01.1-.06.14-.2.1-.32.02.02.06.07.14.09.06.01.1 0 .13 0 0 .01.03.17.15.2.05.02.1 0 .13 0 .18-.09.06-.68.05-.71.02 0 .05 0 .09-.02.04-.03.05-.08.05-.09v-.39c.08.11.21.15.3.11.09-.04.11-.15.11-.16l.06-.62s.08.01.11 0c.14-.02.26-.16.31-.35l-.08 1.35c-.08.23-.33.89-.73.96-.07.01-.22.02-.25.02-.32.01-.45-.03-.61-.03-.04 0-.59 0-.81.39-.12.22-.12.54.03.71.09.1.17.07.36.23.14.13.14.19.26.25.02 0 .18.09.37.03 0 0 .14-.04.14-.09 0-.06-.26-.09-.26-.1 0-.01.28.08.46-.05.08-.06.13-.16.1-.2-.04-.06-.21.04-.31-.03-.08-.07-.09-.24-.03-.35.12-.23.54-.27.84-.16.21.08.36.25.41.41.01.05.04.13 0 .2s-.11.05-.15.12c-.05.09.03.18 0 .23-.07.09-.39-.09-.43-.03-.03.04.07.17.2.24.15.09.38.12.57.04.23-.1.37-.35.38-.56 0-.23-.13-.43-.34-.72-.16-.22-.28-.33-.25-.48.02-.1.12-.19.17-.17.06.01.05.14.12.34.06.15.13.34.3.41.15.06.33 0 .43-.09.1-.08.14-.17.16-.22.11.22.35.28.47.19.1-.07.14-.27.04-.44.03.05.11.16.26.22.04.02.22.09.31.01.11-.08.11-.33-.05-.59.11.04.23.02.28-.04.06-.07.03-.18 0-.27a.798.798 0 0 0-.27-.41c.13.02.18-.01.2-.03.11-.1.07-.37-.13-.68.06.03.15.06.22.03.11-.04.13-.17.18-.17.08 0 .1.3.23.65.09.23.21.57.45.62.14.03.27-.04.35-.09.02.02.11.08.23.08.11 0 .18-.06.21-.08.01.02.12.16.3.17.2.02.32-.12.34-.13.03.04.13.16.31.21.18.05.33 0 .37-.02a.745.745 0 0 0 .82.28c.02.04.15.35.44.41.03 0 .18.03.28-.03.27-.2.02-1.11-.31-1.75-.1-.2-.38-.68-1.14-1.36a9.19 9.19 0 0 0-2.11-1.4c.04 0 .08-.02.1-.05.02-.04 0-.1-.05-.12.19.08.38.06.48-.05.02-.02.05-.07.07-.14.1.05.22.04.3-.02.11-.08.11-.2.12-.22.01 0 .19.07.35-.04.11-.08.14-.21.14-.24.12.03.24 0 .32-.09.12-.13.07-.3.07-.31 0 0 .19.02.31-.12.11-.13.06-.29.06-.31.02 0 .23.01.37-.16.14-.18.07-.39.07-.41.14 0 .26-.08.33-.2.07-.12.06-.28-.02-.39.22-.1.34-.28.31-.41 0-.03-.03-.08-.09-.12.07-.03.12-.1.12-.17 0-.11-.07-.17-.08-.18.04 0 .2-.03.28-.15.1-.16.04-.42-.18-.58.03 0 .26.06.47-.1.21-.16.22-.41.22-.44.05 0 .28 0 .47-.17.15-.13.19-.29.2-.35.07 0 .28-.02.47-.17.21-.16.28-.37.3-.44.04-.01.49-.16.58-.56.03-.13.02-.24 0-.32.05-.02.35-.13.49-.45.09-.22.06-.42.05-.49a.72.72 0 0 0 .19-.12c.24-.19.53-.58.41-.88a.47.47 0 0 0-.17-.2c.1-.1.32-.34.37-.72.01-.12.04-.32-.06-.38-.09-.06-.31.02-.87.59.63-.57.79-1.07.85-1.31.05-.21.02-.28-.01-.31-.14-.11-.6.23-.98.54.11-.14.81-1.08.64-1.47-.02-.06-.06-.08-.07-.08-.21-.1-.69.48-.95.82.11-.2.63-1.22.44-1.49-.01-.01-.03-.05-.07-.06-.21-.06-.52.49-.58.6 0-.13 0-.28-.09-.32-.13-.06-.37.21-.5.35-.27.3-.69.7-1.29 1.18h-.39c-1.3 1.09-2.61 2.17-3.91 3.26-.04.1-.09.26-.14.45-.29 1.09-.12 1.72-.23 2.37-.08.45-.32 1.07-1.05 1.75l-.08.19c.07-.22.03-.43-.09-.54-.03-.02-.07-.05-.14-.07 0-.03.05-.3-.13-.48a.513.513 0 0 0-.18-.11c0-.03.04-.3-.15-.49a.53.53 0 0 0-.29-.15c0-.04-.01-.38-.28-.55-.1-.07-.2-.09-.26-.1a.4.4 0 0 0-.15-.4c-.12-.09-.26-.07-.29-.07-.01-.27-.14-.5-.34-.57a.407.407 0 0 0-.21-.02.734.734 0 0 0-.27-.41.667.667 0 0 0-.46-.12c-.02-.04-.1-.22-.32-.31a.546.546 0 0 0-.32-.03c-.02-.04-.11-.25-.35-.34a.596.596 0 0 0-.35-.01c0-.02-.05-.25-.27-.34-.19-.08-.36 0-.38.01 0-.02-.1-.3-.37-.38-.18-.05-.33 0-.37.03-.06-.07-.17-.18-.34-.27-.19-.09-.36-.11-.45-.12 0-.02-.12-.29-.4-.34-.24-.04-.41.1-.44.12-.13-.26-.39-.4-.62-.36a.5.5 0 0 0-.31.22c-.38-.34-.78-.4-.93-.26-.02.02-.1.11-.08.33-.39-.29-.78-.29-.92-.13-.02.02-.1.12-.05.35h-.25c-.43-.05-.57-.29-.83-.23-.11.03-.26.11-.27.22-.01.11.11.24.31.3-.08.02-.2.03-.33 0-.14-.03-.19-.08-.36-.17-.2-.1-.41-.2-.62-.16-.15.03-.27.13-.3.19l-.07.06Z" class="Vector"/>
    </g>
    <g class="Moro Lorenzo Field">
      <path fill="#000" d="M1091.13 712.23H961.95c-18.529 0-33.55 15.021-33.55 33.55v40.18c0 18.529 15.021 33.55 33.55 33.55h129.18c18.53 0 33.55-15.021 33.55-33.55v-40.18c0-18.529-15.02-33.55-33.55-33.55Z" class="Vector"/>
      <path fill="#2D2D2D" d="M1084.39 723.25H968.7c-15.508 0-28.08 12.572-28.08 28.08v29.97c0 15.508 12.572 28.08 28.08 28.08h115.69c15.51 0 28.08-12.572 28.08-28.08v-29.97c0-15.508-12.57-28.08-28.08-28.08Z" class="Vector"/>
    </g>
    <g class="Cervine Canteen">
      <path fill="#2D2D2D" d="M660.87 131.82H556.88v53.38h103.99v-53.38Z" class="Vector"/>
      <path fill="#000" d="M547.46 132.89H670.3l-8.23-14.98H554.69l-7.23 14.98Z" class="Vector"/>
      <g class="Group">
        <path fill="#FFF9EB" d="M579.39 136.16h-16.01v8.78h16.01v-8.78Zm24.71 0h-16.01v8.78h16.01v-8.78Zm24.96 0h-16.01v8.78h16.01v-8.78Zm25.309 0h-16.01v8.78h16.01v-8.78Z" class="Vector"/>
      </g>
      <path fill="#FFF9EB" d="M660.87 155.21h-104v29.99h104v-29.99Z" class="Vector"/>
      <path fill="#000" d="M664.47 148.2H553.25v9.78h111.22v-9.78Z" class="Vector"/>
      <g class="Group">
        <path fill="#000" d="M562.77 152.22h-5.9v32.98h5.9v-32.98Zm32.64 0h-5.9v32.98h5.9v-32.98Zm32.631 0h-5.9v32.98h5.9v-32.98Zm32.809 0h-5.9v32.98h5.9v-32.98Z" class="Vector"/>
      </g>
    </g>
    <g class="Cervini Residence Hall">
      <path fill="#2D2D2D" d="M805.8 118.78H684.52v66.43H805.8v-66.43Z" class="Vector"/>
      <path fill="#FFF9EB" d="M726.1 128.09h-34v57.11h34v-57.11Z" class="Vector"/>
      <path fill="#2D2D2D" d="M805.779 118.77h-70.88v66.43h70.88v-66.43Z" class="Vector"/>
      <path fill="#FFF9EB" d="M765.22 127.33h-10.84v9.56h10.84v-9.56Zm15.47 0h-10.84v9.56h10.84v-9.56Zm16.419 0H786.27v9.56h10.839v-9.56Z" class="Vector"/>
      <path fill="#000" d="M746.619 118.77h-11.76v66.38h11.76v-66.38Z" class="Vector"/>
      <path fill="#000" d="M739.409 145.56v11.53h66.38v-11.53h-66.38Z" class="Vector"/>
      <path fill="#FFF9EB" d="M798.829 148.14h-58.3v8.94h58.3v-8.94Z" class="Vector"/>
      <path fill="#FFF9EB" d="M762.189 156.97H751.77v28.24h10.419v-28.24Zm25.47 0h-10.42v28.24h10.42v-28.24Z" class="Vector"/>
    </g>
    <g class="Sec C" clip-path="url(#d)">
      <g class="Group">
        <path fill="#2D2D2D" d="M790.354 582.588h59.677v-32.702h-59.677v32.702Z" class="Vector"/>
        <path fill="#2D2D2D" d="M848.232 582.588h16.956V545h-16.956v37.588Z" class="Vector"/>
        <path fill="#000" d="M787 585h80v-2.481h-80V585Zm2.029-24.546h59.238v-3.912h-59.238v3.912Zm.12 10.011h59.238v-3.911h-59.238v3.911Z" class="Vector"/>
        <path fill="#FFFAE9" d="M836.309 580.598h4.452v-4.416h-4.452v4.416Zm-8.715 0h4.452v-4.416h-4.452v4.416Zm-8.431 0h4.452v-4.416h-4.452v4.416Zm-8.62 0h4.452v-4.416h-4.452v4.416Zm-8.431 0h4.452v-4.416h-4.452v4.416Zm-8.43 0h4.452v-4.416h-4.452v4.416Z" class="Vector"/>
        <path fill="#000" d="M787.006 549.948h65.299l-8.907-3.914h-47.772l-8.62 3.914Z" class="Vector"/>
      </g>
    </g>
    <g class="Sec A" clip-path="url(#e)">
      <g class="Group">
        <path fill="#2D2D2D" d="M806.68 441.815h-59.07v32.768h59.07v-32.768Z" class="Vector"/>
        <path fill="#2D2D2D" d="M749.392 436.919h-16.784v37.664h16.784v-37.664Z" class="Vector"/>
        <path fill="#000" d="M810 474.514h-79.186v2.487H810v-2.487Zm-2.008-26.029h-58.635v3.919h58.635v-3.919Zm-.119 10.031h-58.635v3.92h58.635v-3.92Z" class="Vector"/>
        <path fill="#FFFAE9" d="M761.194 468.164h-4.407v4.426h4.407v-4.426Zm8.626 0h-4.407v4.426h4.407v-4.426Zm8.345 0h-4.407v4.426h4.407v-4.426Zm8.532 0h-4.407v4.426h4.407v-4.426Zm8.345 0h-4.407v4.426h4.407v-4.426Zm8.344 0h-4.407v4.426h4.407v-4.426Z" class="Vector"/>
        <path fill="#000" d="M809.995 441.876H745.36l8.816-3.921h47.286l8.533 3.921Z" class="Vector"/>
        <path fill="#FFFAE9" d="M745.36 444.169h-7.782v6.309h7.782v-6.309Zm0 9.981h-7.782v6.309h7.782v-6.309Z" class="Vector"/>
        <path fill="#000" d="M752 436.919h-22l1.926-2.919h18.147l1.927 2.919Z" class="Vector"/>
      </g>
    </g>
    <g class="Sec B" clip-path="url(#f)">
      <g class="Group">
        <path fill="#2D2D2D" d="M840.687 492.886h-58.931v32.702h58.931v-32.702Z" class="Vector"/>
        <path fill="#2D2D2D" d="M783.533 488h-16.744v37.588h16.744V488Z" class="Vector"/>
        <path fill="#000" d="M844 525.519h-79v2.482h79v-2.482Zm-2.003-25.977H783.5v3.912h58.497v-3.912Zm-.12 10.012H783.38v3.912h58.497v-3.912Z" class="Vector"/>
        <path fill="#FFFAE9" d="M795.308 519.182h-4.397v4.416h4.397v-4.416Zm8.605 0h-4.396v4.416h4.396v-4.416Zm8.325 0h-4.396v4.416h4.396v-4.416Zm8.513 0h-4.397v4.416h4.397v-4.416Zm8.325 0h-4.396v4.416h4.396v-4.416Zm8.325 0h-4.396v4.416h4.396v-4.416Z" class="Vector"/>
        <path fill="#000" d="M843.994 492.948h-64.483l8.796-3.914h47.175l8.512 3.914Z" class="Vector"/>
      </g>
    </g>
    <g class="College Covered Courts">
      <path fill="#2D2D2D" d="M1064.04 360.72h-93.05v26.01h93.05v-26.01Z" class="Vector"/>
      <path fill="#000" d="m970.99 360.72 47.4-25.79 45.65 25.79h-14.16c-10.62-5.4-21.24-10.81-31.87-16.21-10.74 5.41-21.479 10.83-32.219 16.24-4.94 0-9.871-.02-14.811-.03h.01Z" class="Vector"/>
      <path fill="#FFF9EB" d="M1035.29 360.71H971v18.08h64.29v-18.08Zm21.91 9.58h-10.43v16.14h10.43v-16.14Z" class="Vector"/>
    </g>
    <g class="Dela Costa Hall">
      <path fill="#2D2D2D" d="M447.8 585.08h-77.68v35.22h77.68v-35.22Z" class="Vector"/>
      <path fill="#000" d="M412.25 569.62H386.6v50.68h25.65v-50.68Z" class="Vector"/>
      <path fill="#2D2D2D" d="M412.26 569.62h-25.65v4.98h25.65v-4.98Z" class="Vector"/>
      <path fill="#FFF9EB" d="M396.92 580.67h-5.64v23.94h5.64v-23.94Zm10.05 0h-5.64v23.94h5.64v-23.94ZM370.12 609v5.64h77.72V609h-77.72Zm44.691-9.87v5.09h33.02v-5.09h-33.02Zm-.011-8.78v5.09h33.02v-5.09H414.8Z" class="Vector"/>
    </g>
    <g class="Eliazo Residence Hall">
      <path fill="#FFF9EB" d="M942.38 130.26H825.84v54.95h116.54v-54.95Z" class="Vector"/>
      <path fill="#2D2D2D" d="M836.42 127.95v54.88h23.41v-19.64h49.11v19.27h22.88v-54.51h-22.35v23.86h-49.99c0-7.96.02-15.92.02-23.88-7.69 0-15.39.02-23.08.02Z" class="Vector"/>
      <path fill="#000" d="M942.359 182.03h-116.49v3.17h116.49v-3.17ZM818.02 130.19h132.189l-9.799-12.98H827.819l-9.799 12.98Z" class="Vector"/>
      <path fill="#2D2D2D" d="M821.68 125.37h124.87c-2.04-2.72-4.08-5.44-6.12-8.17H827.84l-6.15 8.16-.01.01Zm69.539 41.5H877.02v15.18h14.199v-15.18Z" class="Vector"/>
    </g>
    <g class="Faura Hall">
      <path fill="#2D2D2D" d="M556.539 642.93h-93.26v-34.89l9.68-9.97h74.44l9.14 9.41v35.45Z" class="Vector"/>
      <path fill="#000" d="M561.419 609.28h-37.61c-1.55-1.23-3.1-2.46-4.64-3.69h-18.67c-1.45 1.23-2.91 2.46-4.36 3.69h-37.73v5.82h103.02v-5.82h-.01Z" class="Vector"/>
      <g class="Group">
        <path fill="#FFF9EB" d="M517.19 588.75h-14.21v33.81h14.21v-33.81Z" class="Vector"/>
        <path fill="#000" d="M504.99 586.47h-4.45v36.09h4.45v-36.09Zm14.28 0h-4.45v36.09h4.45v-36.09Z" class="Vector"/>
      </g>
      <path fill="#000" d="M561.42 624.18h-33.5l-3.53-4.01c-9.44 0-18.89.02-28.33.03l-3.15 4.13-34.52-.15V630h103.02v-5.82h.01Z" class="Vector"/>
      <path fill="#FFF9EB" d="M522.31 631.09h-24.8v11.95h24.8v-11.95Z" class="Vector"/>
      <path fill="#000" d="M513.74 633.68h-7.66v9.3h7.66v-9.3Z" class="Vector"/>
    </g>
    <g class="Gonzaga Hall">
      <path fill="#2D2D2D" d="M721.74 382.95h-88.9v49.55h88.9v-49.55Z" class="Vector"/>
      <path fill="#000" d="M725.2 406.76h-95.81v8.46h95.81v-8.46Z" class="Vector"/>
      <g class="Group">
        <path fill="#000" d="M638.829 411.67h-5.019v20.83h5.019v-20.83Zm14.581 0h-5.02v20.83h5.02v-20.83Zm14.59 0h-5.021v20.83H668v-20.83Zm23.079 0h-5.019v20.83h5.019v-20.83Zm14.85 0h-5.02v20.83h5.02v-20.83Zm14.851 0h-5.02v20.83h5.02v-20.83Z" class="Vector"/>
      </g>
      <path fill="#000" d="M691.58 402.79h-28.57v6.63h28.57v-6.63Z" class="Vector"/>
      <path fill="#FFF9EB" d="M681.799 419.13h-9.4v13.36h9.4v-13.36Z" class="Vector"/>
      <g class="Group">
        <path fill="#FFF9EB" d="M647.64 386.47h-10.09v11.04h10.09v-11.04Zm13.88 0h-10.09v11.04h10.09v-11.04Zm13.88 0h-10.09v11.04h10.09v-11.04Zm13.88 0h-10.091v11.04h10.091v-11.04Zm13.87 0h-10.09v11.04h10.09v-11.04Zm13.88 0h-10.091v11.04h10.091v-11.04Z" class="Vector"/>
      </g>
      <path fill="#000" d="M629.699 383.3h95.181c-2.35-2.9-4.701-5.79-7.051-8.69-27.26-.05-54.519-.1-81.779-.14-2.12 2.94-4.241 5.89-6.361 8.83h.01Z" class="Vector"/>
    </g>
    <g class="Henry Lee Irwin Theater">
      <path fill="#000" d="M1323.48 552.66h-43.32v72.21h43.32v-72.21Z" class="Vector"/>
      <path fill="#2D2D2D" d="M1326.41 552.63h-38.84v72.21h38.84v-72.21Z" class="Vector"/>
      <path fill="#FFF9EB" d="M1294.98 570.13c10.68-4.25 28.88-9.93 52.01-9.66 21.49.25 38.47 5.53 48.85 9.66v54.74h-100.86v-54.74Z" class="Vector"/>
      <path fill="#000" d="M1375.1 608.04h-7.65v16.83h7.65v-16.83Zm20.72 0h-3.05v16.83h3.05v-16.83Zm-93.2 0h-7.65v16.83h7.65v-16.83Z" class="Vector"/>
      <path fill="#2D2D2D" d="M1395.83 607.09h-100.86v6.66h100.86v-6.66Z" class="Vector"/>
      <path fill="#000" d="M1319.16 596.57h-7.08v28.3h7.08v-28.3Z" class="Vector"/>
      <path fill="#000" d="M1312.58 596.5v7.08h42.91v-7.08h-42.91Z" class="Vector"/>
      <path fill="#000" d="M1355.51 596.57h-7.08v28.3h7.08v-28.3Z" class="Vector"/>
    </g>
    <g class="Church of the Gesu">
      <path fill="#000" d="M307.41 209.48v8.79h176.9v-8.79c-19.43-9.94-38.86-19.89-58.3-29.83-10.01-10.74-20.03-21.48-30.04-32.22-9.93 10.74-19.85 21.48-29.78 32.22-19.59 9.94-39.19 19.89-58.78 29.83Z" class="Vector"/>
      <path fill="#000" d="M398.21 107.89h-4.71v71.38h4.71v-71.38Z" class="Vector"/>
      <path fill="#000" d="M406.821 115.5h-21.93v4.53h21.93v-4.53Z" class="Vector"/>
      <path fill="#2D2D2D" d="M484.31 209.48h-176.9v8.79h176.9v-8.79Z" class="Vector"/>
      <path fill="#FFF9EB" d="M336.37 209.47h118.98l-37.37-24.43h-42.53l-39.08 24.43Zm36.7-30.1h20.4v-24.4l-20.4 24.4Zm45.571 0H398.23v-24.4l20.411 24.4Z" class="Vector"/>
    </g>
    <g class="ISO">
      <g class="Group">
        <path fill="#2D2D2D" d="M132.94 337.49H49.12v30.17h83.82v-30.17Z" class="Vector"/>
        <path fill="#000" d="M137.03 339.35H45.04v-8.61c15.08-3.07 30.17-6.13 45.25-9.2 15.58 3.07 31.16 6.13 46.74 9.2v8.61Z" class="Vector"/>
      </g>
      <g class="Group">
        <path fill="#000" d="M70.37 355.87H55.23v11.77h15.14v-11.77Zm18.83 0H74.06v11.77H89.2v-11.77Zm18.821 0h-15.14v11.77h15.14v-11.77Zm18.819 0H111.7v11.77h15.14v-11.77Z" class="Vector"/>
      </g>
      <g class="Group">
        <path fill="#FFF9EB" d="M70.37 339.35H55.23v11.77h15.14v-11.77Zm18.83 0H74.06v11.77H89.2v-11.77Zm18.821 0h-15.14v11.77h15.14v-11.77Zm18.819 0H111.7v11.77h15.14v-11.77Z" class="Vector"/>
      </g>
    </g>
    <g class="JGSOM Building">
      <path fill="#2D2D2D" d="M780.01 668.87h-62.4v13.72h62.4v-13.72Zm-.02 13.73h-62.38v50.02c22.81-.14 45.61-.28 68.42-.41l.06-42.76h-6.16l.06-6.84v-.01Z" class="Vector"/>
      <g class="Group">
        <g class="Group">
          <path fill="#FFF9EB" d="M774.15 685.4h-14.24v7.65h14.24v-7.65Zm-16.74 0h-19v7.65h19v-7.65Zm-20.43 0h-9.5v7.65h9.5v-7.65Z" class="Vector"/>
        </g>
        <g class="Group">
          <path fill="#FFF9EB" d="M724.93 685.49h-7.32v7.65h7.32v-7.65Zm0 13.96h-7.32v7.65h7.32v-7.65Zm0 13.84h-7.32v7.65h7.32v-7.65Z" class="Vector"/>
        </g>
      </g>
      <path fill="#000" d="M740.931 698.05H729.69v34.26h11.241v-34.26Zm25.489 0h-21.77v34.26h21.77v-34.26Zm14.95 0h-11.24v34.26h11.24v-34.26Zm.89-24.11h-69.1v8.64h69.1v-8.64Z" class="Vector"/>
    </g>
    <g class="JSEC">
      <g class="Group">
        <path fill="#2D2D2D" d="M1061.56 624.35h-78.991v21.75h78.991v-21.75Z" class="Vector"/>
        <path fill="#000" d="M1068.93 625.7h-93.741v-6.84c2.63-1.93 5.26-3.87 7.89-5.8h78.721c2.38 1.93 4.76 3.87 7.14 5.8v6.84h-.01Z" class="Vector"/>
        <path fill="#FFF9EB" d="M1036.55 631.14h-28.98v14.85h28.98v-14.85Z" class="Vector"/>
        <g class="Group">
          <path fill="#2D2D2D" d="M1053.4 588.21h-62.671v21.37h62.671v-21.37Z" class="Vector"/>
          <path fill="#2D2D2D" d="M998.78 588.71h-8.051v24.32h8.051v-24.32Zm54.61.04h-8.05v24.32h8.05v-24.32Z" class="Vector"/>
        </g>
        <path fill="#FFF9EB" d="M1049.11 591.22h-54.1v14.38h54.1v-14.38Z" class="Vector"/>
      </g>
      <g class="Group">
        <path fill="#000" d="M1012.47 595.17h1.58v4.6c0 1.37-.96 2.3-2.26 2.3-.44 0-.98-.08-1.35-.19v-1.21c.28.08.65.13.9.13.66 0 1.12-.47 1.12-1.19v-4.44h.01Zm2.42 4.5h1.42c0 .73.65 1.24 1.55 1.24.77 0 1.25-.39 1.25-.92 0-.63-.72-.72-1.55-.83-1.33-.17-2.61-.45-2.61-2.01 0-1.31 1.12-2.21 2.74-2.21s2.81.98 2.81 2.33h-1.37c0-.66-.58-1.13-1.39-1.13-.74 0-1.23.35-1.23.84 0 .63.67.72 1.52.84 1.3.15 2.65.43 2.65 1.98 0 1.37-1.14 2.33-2.84 2.33s-2.93-1.03-2.93-2.44l-.02-.02Zm11.45.93v1.27h-4.8v-6.7h4.71v1.27h-3.18v1.43h2.81V599h-2.81v1.6h3.28-.01Zm7.34-1.04c-.23 1.48-1.62 2.54-3.33 2.54-2.07 0-3.58-1.51-3.58-3.59s1.51-3.59 3.58-3.59c1.69 0 3.09 1.09 3.33 2.61l-1.49.17c-.19-.83-.94-1.42-1.81-1.42-1.2 0-2.03.92-2.03 2.23s.85 2.23 2.03 2.23c.85 0 1.61-.58 1.82-1.38l1.48.2Z" class="Vector"/>
      </g>
    </g>
    <g class="Kostka Hall">
      <path fill="#2D2D2D" d="M554.2 407.52h-56.41v44.99h56.41v-44.99Z" class="Vector"/>
      <path fill="#000" d="M497.8 398.55h-23.04v53.96h23.04v-53.96Z" class="Vector"/>
      <path fill="#FFF9EB" d="M510.17 442.53h-12.25v9.97h12.25v-9.97Zm14.67 0h-12.25v9.97h12.25v-9.97Z" class="Vector"/>
      <path fill="#2D2D2D" d="M495.54 400.47h-18.53v52.02h18.53v-52.02Z" class="Vector"/>
      <path fill="#FFF9EB" d="M539.52 442.53h-12.25v9.97h12.25v-9.97Zm14.669 0h-12.25v9.97h12.25v-9.97Zm-59.719-14h-16.38v10.28h16.38v-10.28Zm0-20.49h-16.38v10.28h16.38v-10.28Z" class="Vector"/>
      <path fill="#000" d="M577.239 398.55h-23.04v53.96h23.04v-53.96Z" class="Vector"/>
      <path fill="#2D2D2D" d="M574.979 400.47h-18.53v52.02h18.53v-52.02Z" class="Vector"/>
      <path fill="#FFF9EB" d="M573.909 428.53h-16.38v10.28h16.38v-10.28Zm0-20.49h-16.38v10.28h16.38v-10.28Zm-75.039-10.76h-25.19v3.95h25.19v-3.95Zm79.44 0h-25.19v3.95h25.19v-3.95Z" class="Vector"/>
    </g>
    <g class="Leong Hall">
      <g class="Group">
        <g class="Group">
          <path fill="#000" d="M303.641 639.32h-30.08v29.37h30.08v-29.37Zm29.829 47.09h-89.35v3.81h89.35v-3.81Z" class="Vector"/>
          <path fill="#2D2D2D" d="M274.88 639.32h-30.8v47.09h30.8v-47.09Zm58.481.01h-30.8v47.09h30.8v-47.09Z" class="Vector"/>
          <path fill="#FFF9EB" d="M271.18 666.85h-23.39v9.02h23.39v-9.02Zm0-11.86h-23.39v9.02h23.39v-9.02Zm0-11.87h-23.39v9.02h23.39v-9.02Zm58.48 23.73h-23.389v9.02h23.389v-9.02Zm0-11.86h-23.389v9.02h23.389v-9.02Zm0-11.87h-23.389v9.02h23.389v-9.02Z" class="Vector"/>
        </g>
        <path fill="#FFF9EB" d="M302.53 653.99h-27.6v5.29h27.6v-5.29Zm-.05-11.08h-27.55v5.29h27.55v-5.29Z" class="Vector"/>
      </g>
      <path fill="#000" d="m246.36 630.55 85.03-.06 6.91 9.3h-99.68l7.74-9.24Z" class="Vector"/>
    </g>
    <g class="LST">
      <path fill="#000" d="M1082.78 112.91h-36.01v62.71h36.01v-62.71Z" class="Vector"/>
      <path fill="#FFF9EB" d="M1046.79 140.91h-22.13v59.5h22.13v-59.5Z" class="Vector"/>
      <path fill="#2D2D2D" d="M1146.59 200.05c-33.31.12-66.63.24-99.94.37.03-11.08.05-22.16.08-33.24l36.08-.27c0-11.54-.01-23.09-.02-34.63h63.8v67.78-.01Zm-111.99-56.76h-9.93v57.25h9.93v-57.25Z" class="Vector"/>
      <path fill="#FFF9EB" d="M1065.28 117.93h-12.8v13.64h12.8v-13.64Zm0 18.69h-12.8v13.64h12.8v-13.64Zm0 18.7h-12.8v11.44h12.8v-11.44Zm50.51 21.36h-66.72v13.98h66.72v-13.98Zm30.81 0h-23.2v13.98h23.2v-13.98Zm.06-23.89h-23.17v13.98h23.17v-13.98Zm0-18h-23.17v13.98h23.17v-13.98Zm-29.91 0h-33.88v13.98h33.88v-13.98Zm-.12 18h-33.88v13.98h33.88v-13.98Z" class="Vector"/>
    </g>
    <g class="MVP Building">
      <path fill="#2D2D2D" d="M472.59 479.49h-4.29v7.44h4.29v-7.44Zm28.48 0h-4.29v7.44h4.29v-7.44Zm28.47 0h-4.29v7.44h4.29v-7.44Zm28.471 0h-4.29v7.44h4.29v-7.44Z" class="Vector"/>
      <g class="Group">
        <g class="Group">
          <path fill="#000" d="M558.57 488.04h-90.88v47.76h90.88v-47.76Z" class="Vector"/>
          <path fill="#FFF9EB" d="M558.61 524.47h-90.92v11.39h90.92v-11.39Z" class="Vector"/>
          <path fill="#2D2D2D" d="M483.23 524.47h-2.79v11.39h2.79v-11.39Zm15.63 0h-2.79v11.39h2.79v-11.39Zm15.62 0h-2.79v11.39h2.79v-11.39Zm15.63 0h-2.79v11.39h2.79v-11.39Zm15.62 0h-2.79v11.39h2.79v-11.39Z" class="Vector"/>
        </g>
        <path fill="#FFF9EB" d="M561.031 501.05h-45.9v12.59h45.9v-12.59Z" class="Vector"/>
        <g class="Group">
          <path fill="#2D2D2D" d="M561.03 497.72h-49.29v4.43h49.29v-4.43Zm0 15.45h-49.29v4.43h49.29v-4.43Z" class="Vector"/>
          <path fill="#2D2D2D" d="M511.74 497.72v19.8h4.55v-19.8h-4.55Z" class="Vector"/>
        </g>
        <path fill="#2D2D2D" d="M505.95 511.76h-38.28v5.92h38.28v-5.92Zm0-11.71h-38.28v5.92h38.28v-5.92Zm52.61-12.02h-90.89v5.92h90.89v-5.92Z" class="Vector"/>
        <path fill="#000" d="M509.88 493.94h-45.59v6.11h45.59v-6.11Zm-.4 11.8h-45.19v6.11h45.19v-6.11Zm-.01 12.08h-45.18v6.63h45.18v-6.63Z" class="Vector"/>
        <path fill="#FFF9EB" d="M488.801 513.28h-12.17v3.13h12.17v-3.13Z" class="Vector"/>
        <path fill="#000" d="M487.41 511.71 473 524.26c-2.93.02-5.86.05-8.8.07 5.01-4.21 10.03-8.41 15.04-12.62h8.17Z" class="Vector"/>
        <path fill="#FFF9EB" d="M503.78 513.28h-12.17v3.13h12.17v-3.13Zm-30 0h-6.13v3.13h6.13v-3.13Zm15.04-11.91h-12.17v3.13h12.17v-3.13Zm14.981 0h-12.17v3.13h12.17v-3.13Zm-30.001 0h-6.13v3.13h6.13v-3.13Z" class="Vector"/>
        <path fill="#000" d="m491.311 497.54-14.41 12.55c-2.93.02-5.86.05-8.8.07 5.01-4.21 10.03-8.41 15.04-12.62h8.17Zm69.73-11.16h-96.7v4.1h96.7v-4.1Z" class="Vector"/>
        <path fill="#2D2D2D" d="M564.311 519.76h-45.01v2.02h45.01v-2.02Z" class="Vector"/>
        <path fill="#FFF9EB" d="M479.85 491.38h-12.18v1.61h12.18v-1.61Zm15.75 0h-12.18v1.61h12.18v-1.61Zm15.74 0h-12.18v1.61h12.18v-1.61Zm15.75 0h-12.18v1.61h12.18v-1.61Zm15.74 0h-12.18v1.61h12.18v-1.61Zm15.75 0H546.4v1.61h12.18v-1.61Z" class="Vector"/>
        <path fill="#000" d="m492.33 486.83-14.41 12.55c-2.93.02-5.86.05-8.8.07 5.01-4.21 10.03-8.41 15.04-12.62h8.17Z" class="Vector"/>
      </g>
      <path fill="#000" d="M561.2 473.24h-96.9v7.78h96.9v-7.78Z" class="Vector"/>
    </g>
    <g class="New Rizal Library" clip-path="url(#g)">
      <g class="Group">
        <path fill="#2D2D2D" d="M505.033 680.532H449.1v51.255h55.933v-51.255Zm-65.256 0h-44.281v51.255h44.281v-51.255Z" class="Vector"/>
        <g class="Group">
          <path fill="#000" d="M411.487 676.261h-6.766v22.133h6.766v-22.133Z" class="Vector"/>
        </g>
        <path fill="#000" d="M442.496 671.213h-6.603v60.574h6.603v-60.574Zm14.372 0h-6.603v60.574h6.603v-60.574Z" class="Vector"/>
        <path fill="#000" d="M456.868 665h-20.975v11.649h20.975V665Z" class="Vector"/>
        <path fill="#FFFAE9" d="M450.265 676.649h-7.769v55.138h7.769v-55.138Z" class="Vector"/>
        <path fill="#2D2D2D" d="M531.447 688.298h-55.934v43.489h55.934v-43.489Z" class="Vector"/>
        <g class="Group">
          <path fill="#000" d="M514.356 688.298h-38.843v23.298h38.843v-23.298Z" class="Vector"/>
        </g>
        <path fill="#FFFAE9" d="M475.512 690.628h-15.149v9.319h15.149v-9.319Z" class="Vector"/>
        <path fill="#000" d="M531.446 696.452h-17.091v35.335h17.091v-35.335Z" class="Vector"/>
        <path fill="#FFFAE9" d="M519.017 699.947h-21.364v8.154h21.364v-8.154Zm-15.538 11.649h-24.471v5.436h24.471v-5.436Z" class="Vector"/>
        <g class="Group">
          <path fill="#000" d="M503.479 717.032h-40.785v3.883h40.785v-3.883Z" class="Vector"/>
        </g>
        <g class="Group">
          <path fill="#000" d="M501.148 690.239h-40.785v1.942h40.785v-1.942Z" class="Vector"/>
        </g>
        <path fill="#000" d="M468.521 720.915h-3.884v10.872h3.884v-10.872Zm33.404 0h-3.884v10.872h3.884v-10.872Zm-16.702 0h-3.884v10.872h3.884v-10.872Z" class="Vector"/>
        <path fill="#FFFAE9" d="M446.575 674.707a3.689 3.689 0 1 0 0-7.377 3.69 3.69 0 1 0 0 7.377Z" class="Vector"/>
        <path fill="#000" d="M533 731.787H392V738h141v-6.213Z" class="Vector"/>
      </g>
    </g>
    <g class="Old Communications Building" clip-path="url(#h)">
      <g class="Group">
        <path fill="#2D2D2D" d="M992.089 407.663h-78.596V437h78.596v-29.337Z" class="Vector"/>
        <path fill="#000" d="M995 407.663h-85l3.493-6.663h78.596l2.911 6.663Z" class="Vector"/>
        <path fill="#FFFAE9" d="M985.103 411.623h-19.794V437h19.794v-25.377Z" class="Vector"/>
        <path fill="#000" d="M935.617 411.735h-14.811v15.014h14.811v-15.014Z" class="Vector"/>
        <path fill="#FFFAE9" d="M933.719 413.275h-11.394v11.55h11.394v-11.55Z" class="Vector"/>
        <path fill="#000" d="M954.113 411.865h-14.811v15.014h14.811v-15.014Z" class="Vector"/>
        <path fill="#FFFAE9" d="M952.215 413.405h-11.394v11.55h11.394v-11.55Z" class="Vector"/>
      </g>
    </g>
    <g class="Pipac" clip-path="url(#i)">
      <g class="Group">
        <path fill="#2D2D2D" d="M597.218 635h-18.662v-31.434l18.662-14.176V635Z" class="Vector"/>
        <path fill="#000" d="M598.772 589.39 577 606.031v-3.081L598.772 586v3.39Z" class="Vector"/>
        <path fill="#2D2D2D" d="M620.782 635h18.662v-31.434l-18.662-14.176V635Z" class="Vector"/>
        <path fill="#000" d="M619.228 589.39 641 606.031v-3.081L619.228 586v3.39Zm1.63 7.609h-23.772v37.905h23.772v-37.905Z" class="Vector"/>
        <path fill="#FFFAE9" stroke="#000" stroke-miterlimit="10" stroke-width="2" d="M618.415 623.604h-18.44v6.163h18.44v-6.163Z" class="Vector"/>
        <path fill="#000" d="M609.528 623.604h-.667v6.163h.667v-6.163Zm-4.666 0h-.667v6.163h.667v-6.163Zm9.775 0h-.666v6.163h.666v-6.163Z" class="Vector"/>
        <path fill="#FFFAE9" stroke="#000" stroke-miterlimit="10" stroke-width="2" d="M618.415 615.129h-18.44v6.163h18.44v-6.163Z" class="Vector"/>
        <path fill="#000" d="M609.528 615.129h-.667v6.163h.667v-6.163Zm-4.666 0h-.667v6.163h.667v-6.163Zm9.775 0h-.666v6.163h.666v-6.163Z" class="Vector"/>
        <path fill="#FFFAE9" stroke="#000" stroke-miterlimit="10" stroke-width="2" d="M618.415 606.654h-18.44v6.163h18.44v-6.163Z" class="Vector"/>
        <path fill="#000" d="M609.528 606.654h-.667v6.163h.667v-6.163Zm-4.666 0h-.667v6.163h.667v-6.163Zm9.775 0h-.666v6.163h.666v-6.163Z" class="Vector"/>
      </g>
    </g>
    <g class="Frame" clip-path="url(#j)">
      <g class="Group">
        <path fill="#2D2D2D" d="M448.154 427.6h-98.073v42.806h98.073V427.6Z" class="Vector"/>
        <path fill="#000" d="M355.617 424h-5.536v46.406h5.536V424Zm45.873 0h-5.536v46.406h5.536V424Zm46.665 0h-5.537v46.406h5.537V424Zm-68.942 0h-5.536v46.406h5.536V424Zm45.61 0h-5.537v46.406h5.537V424Z" class="Vector"/>
        <path fill="#000" d="M448.154 449.87h-98.073v5.468h98.073v-5.468Zm-37.832 8.935h-22.936v12.935h22.936v-12.935Z" class="Vector"/>
        <path fill="#FFFAE9" d="M409.004 460.138h-20.3v10.268h20.3v-10.268Z" class="Vector"/>
        <path fill="#2D2D2D" d="M353.64 424h-1.845v27.038h1.845V424Zm23.728 0h-1.846v27.038h1.846V424Zm22.277 0H397.8v27.038h1.845V424Zm23.332 0h-1.845v27.038h1.845V424Zm23.332 0h-1.845v27.038h1.845V424Z" class="Vector"/>
        <path fill="#000" d="M367.35 424h-5.537v27.038h5.537V424Z" class="Vector"/>
        <path fill="#2D2D2D" d="M365.373 424h-1.846v27.038h1.846V424Z" class="Vector"/>
        <path fill="#000" d="M391.341 424h-5.536v27.038h5.536V424Z" class="Vector"/>
        <path fill="#2D2D2D" d="M389.363 424h-1.845v27.038h1.845V424Z" class="Vector"/>
        <path fill="#000" d="M413.618 424h-5.536v27.038h5.536V424Z" class="Vector"/>
        <path fill="#2D2D2D" d="M411.64 424h-1.845v27.038h1.845V424Z" class="Vector"/>
        <path fill="#000" d="M437.345 424h-5.536v27.038h5.536V424Z" class="Vector"/>
        <path fill="#2D2D2D" d="M435.368 424h-1.846v27.038h1.846V424Z" class="Vector"/>
        <path fill="#000" d="M448.154 436.802h-97.546v3.734h97.546v-3.734ZM450 424H348.236v3.522H450V424Zm-.236 46.479H348v3.522h101.764v-3.522Z" class="Vector"/>
      </g>
    </g>
    <g class="CTC" clip-path="url(#k)">
      <g class="Group">
        <path fill="#2D2D2D" d="M876.349 633.6H860v2.095h16.349V633.6Zm2.02 19.084H862.02v2.094h16.349v-2.094Z" class="Vector"/>
        <path fill="#2D2D2D" d="M861.211 615.447h-42.99v24.204h42.99v-24.204Z" class="Vector"/>
        <path fill="#2D2D2D" d="M863.08 636.16h-41.607V672h41.607v-35.84Z" class="Vector"/>
        <path fill="#000" d="M826.898 633.6H816V672h10.898v-38.4Zm36.129 0h-10.898V672h10.898v-38.4Z" class="Vector"/>
        <path fill="#000" d="M855.558 633.6h-32.697v3.491h32.697V633.6Z" class="Vector"/>
        <path fill="#FFFAE9" d="M850.656 638.255h-22.123v12.15h22.123v-12.15Zm-.028 15.543h-22.123v12.151h22.123v-12.151Zm.028-33.463h-22.123v10.938h22.123v-10.938Z" class="Vector"/>
        <path fill="#2D2D2D" d="M880.184 615.447h-18.973v5.353h18.973v-5.353Zm.001 5.353h-3.835V672h3.835v-51.2Z" class="Vector"/>
        <path fill="#000" d="M882 612.887h-66v2.56h66v-2.56Z" class="Vector"/>
        <path fill="#2D2D2D" d="M851.119 608 816 612.887h66L851.119 608Z" class="Vector"/>
      </g>
    </g>
  </g>
  <defs>
    <clipPath id="a" class="a">
      <path fill="#fff" d="M571 483h95v51h-95z"/>
    </clipPath>
    <clipPath id="b" class="b">
      <path fill="#fff" d="M891 513h144v55H891z"/>
    </clipPath>
    <clipPath id="c" class="c">
      <path fill="#fff" d="M312 486h106v43H312z"/>
    </clipPath>
    <clipPath id="d" class="d">
      <path fill="#fff" d="M787 545h80v40h-80z"/>
    </clipPath>
    <clipPath id="e" class="e">
      <path fill="#fff" d="M730 434h80v43h-80z"/>
    </clipPath>
    <clipPath id="f" class="f">
      <path fill="#fff" d="M765 488h79v40h-79z"/>
    </clipPath>
    <clipPath id="g" class="g">
      <path fill="#fff" d="M392 665h141v73H392z"/>
    </clipPath>
    <clipPath id="h" class="h">
      <path fill="#fff" d="M910 401h85v36h-85z"/>
    </clipPath>
    <clipPath id="i" class="i">
      <path fill="#fff" d="M577 586h64v49h-64z"/>
    </clipPath>
    <clipPath id="j" class="j">
      <path fill="#fff" d="M348 424h102v50H348z"/>
    </clipPath>
    <clipPath id="k" class="k">
      <path fill="#fff" d="M816 608h66v64h-66z"/>
    </clipPath>
  </defs>
</svg>
